<svg xmlns="http://www.w3.org/2000/svg" width="805" height="600"><rect width="805" height="600" x="0" y="0" fill="#FFFFFF" id="backgorund"/><g id="viz"><clipPath id="serieClipPath"><rect x="-50" y="-10" width="805" height="600"/></clipPath><g transform="translate(0,0)"><g transform="translate(50,10)" clip-path="url(#serieClipPath)"><g id="axis"><g transform="translate(0,570)" fill="none" font-size="10" font-family="sans-serif" text-anchor="middle"><path class="domain" stroke="currentColor" d="M0.5,6V0.5H740.5V6"/><g class="tick" opacity="1" transform="translate(0.5,0)"><line stroke="currentColor" y2="6"/><text fill="currentColor" y="9" dy="0.71em">Jan 03</text></g><g class="tick" opacity="1" transform="translate(57.42307692307693,0)"><line stroke="currentColor" y2="6"/><text fill="currentColor" y="9" dy="0.71em">Jan 10</text></g><g class="tick" opacity="1" transform="translate(114.34615384615385,0)"><line stroke="currentColor" y2="6"/><text fill="currentColor" y="9" dy="0.71em">Jan 17</text></g><g class="tick" opacity="1" transform="translate(171.26923076923077,0)"><line stroke="currentColor" y2="6"/><text fill="currentColor" y="9" dy="0.71em">Jan 24</text></g><g class="tick" opacity="1" transform="translate(228.1923076923077,0)"><line stroke="currentColor" y2="6"/><text fill="currentColor" y="9" dy="0.71em">Jan 31</text></g><g class="tick" opacity="1" transform="translate(285.11538461538464,0)"><line stroke="currentColor" y2="6"/><text fill="currentColor" y="9" dy="0.71em">Feb 07</text></g><g class="tick" opacity="1" transform="translate(342.03846153846155,0)"><line stroke="currentColor" y2="6"/><text fill="currentColor" y="9" dy="0.71em">Feb 14</text></g><g class="tick" opacity="1" transform="translate(398.96153846153845,0)"><line stroke="currentColor" y2="6"/><text fill="currentColor" y="9" dy="0.71em">Feb 21</text></g><g class="tick" opacity="1" transform="translate(455.8846153846154,0)"><line stroke="currentColor" y2="6"/><text fill="currentColor" y="9" dy="0.71em">Feb 28</text></g><g class="tick" opacity="1" transform="translate(512.8076923076923,0)"><line stroke="currentColor" y2="6"/><text fill="currentColor" y="9" dy="0.71em">Mar 06</text></g><g class="tick" opacity="1" transform="translate(569.7307692307693,0)"><line stroke="currentColor" y2="6"/><text fill="currentColor" y="9" dy="0.71em">Mar 13</text></g><g class="tick" opacity="1" transform="translate(626.6538461538462,0)"><line stroke="currentColor" y2="6"/><text fill="currentColor" y="9" dy="0.71em">Mar 20</text></g><g class="tick" opacity="1" transform="translate(683.5769230769231,0)"><line stroke="currentColor" y2="6"/><text fill="currentColor" y="9" dy="0.71em">Mar 27</text></g><g class="tick" opacity="1" transform="translate(740.5,0)"><line stroke="currentColor" y2="6"/><text fill="currentColor" y="9" dy="0.71em">Apr 03</text></g><text x="740" dy="-5" text-anchor="end" style="font-family: Arial, sans-serif; font-size: 12px; fill: rgb(123, 123, 123); font-weight: bold;">日期</text></g><g transform="translate(0,0)" fill="none" font-size="10" font-family="sans-serif" text-anchor="end"><path class="domain" stroke="currentColor" d="M0.5,570.5V0.5"/><g class="tick" opacity="1" transform="translate(0,570.5)"><line stroke="currentColor" x2="-6"/><text fill="currentColor" x="-9" dy="0.32em">290</text></g><g class="tick" opacity="1" transform="translate(0,507.16666666666663)"><line stroke="currentColor" x2="-6"/><text fill="currentColor" x="-9" dy="0.32em">300</text></g><g class="tick" opacity="1" transform="translate(0,443.8333333333333)"><line stroke="currentColor" x2="-6"/><text fill="currentColor" x="-9" dy="0.32em">310</text></g><g class="tick" opacity="1" transform="translate(0,380.50000000000006)"><line stroke="currentColor" x2="-6"/><text fill="currentColor" x="-9" dy="0.32em">320</text></g><g class="tick" opacity="1" transform="translate(0,317.1666666666667)"><line stroke="currentColor" x2="-6"/><text fill="currentColor" x="-9" dy="0.32em">330</text></g><g class="tick" opacity="1" transform="translate(0,253.83333333333331)"><line stroke="currentColor" x2="-6"/><text fill="currentColor" x="-9" dy="0.32em">340</text></g><g class="tick" opacity="1" transform="translate(0,190.50000000000003)"><line stroke="currentColor" x2="-6"/><text fill="currentColor" x="-9" dy="0.32em">350</text></g><g class="tick" opacity="1" transform="translate(0,127.16666666666666)"><line stroke="currentColor" x2="-6"/><text fill="currentColor" x="-9" dy="0.32em">360</text></g><g class="tick" opacity="1" transform="translate(0,63.833333333333364)"><line stroke="currentColor" x2="-6"/><text fill="currentColor" x="-9" dy="0.32em">370</text></g><g class="tick" opacity="1" transform="translate(0,0.5)"><line stroke="currentColor" x2="-6"/><text fill="currentColor" x="-9" dy="0.32em">380</text></g><text x="4" text-anchor="start" dominant-baseline="hanging" style="font-family: Arial, sans-serif; font-size: 12px; fill: rgb(123, 123, 123); font-weight: bold;">收盤價</text></g></g><g id="viz"><g><path d="M0,500.3333333333333C4.065934065934067,500.3333333333333,4.065934065934067,475,8.131868131868133,475C12.1978021978022,475,12.1978021978022,471.8333333333333,16.263736263736266,471.8333333333333C20.329670329670332,471.8333333333333,20.329670329670332,471.8333333333333,24.395604395604398,471.8333333333333C36.5934065934066,471.8333333333333,36.5934065934066,456,48.791208791208796,456C52.85714285714286,456,52.85714285714286,459.1666666666667,56.92307692307693,459.1666666666667C60.98901098901099,459.1666666666667,60.98901098901099,471.8333333333333,65.05494505494507,471.8333333333333C69.12087912087912,471.8333333333333,69.12087912087912,509.83333333333337,73.18681318681318,509.83333333333337C77.25274725274724,509.83333333333337,77.25274725274724,516.1666666666666,81.31868131868131,516.1666666666666C93.5164835164835,516.1666666666666,93.5164835164835,528.8333333333334,105.71428571428571,528.8333333333334C109.78021978021978,528.8333333333334,109.78021978021978,484.5,113.84615384615385,484.5C166.7032967032967,484.5,166.7032967032967,456,219.56043956043956,456C223.62637362637363,456,223.62637362637363,459.1666666666667,227.6923076923077,459.1666666666667C231.75824175824175,459.1666666666667,231.75824175824175,481.3333333333333,235.8241758241758,481.3333333333333C239.89010989010987,481.3333333333333,239.89010989010987,462.3333333333333,243.95604395604394,462.3333333333333C248.02197802197801,462.3333333333333,248.02197802197801,433.8333333333333,252.0879120879121,433.8333333333333C264.2857142857143,433.8333333333333,264.2857142857143,418.00000000000006,276.4835164835165,418.00000000000006C280.54945054945057,418.00000000000006,280.54945054945057,364.16666666666663,284.61538461538464,364.16666666666663C288.68131868131866,364.16666666666663,288.68131868131866,323,292.74725274725273,323C296.8131868131868,323,296.8131868131868,329.3333333333333,300.8791208791209,329.3333333333333C304.94505494505495,329.3333333333333,304.94505494505495,357.8333333333333,309.010989010989,357.8333333333333C321.20879120879124,357.8333333333333,321.20879120879124,354.6666666666667,333.4065934065934,354.6666666666667C337.4725274725275,354.6666666666667,337.4725274725275,373.6666666666667,341.53846153846155,373.6666666666667C345.60439560439556,373.6666666666667,345.60439560439556,364.16666666666663,349.67032967032964,364.16666666666663C353.7362637362637,364.16666666666663,353.7362637362637,342,357.8021978021978,342C361.86813186813185,342,361.86813186813185,329.3333333333333,365.9340659340659,329.3333333333333C378.13186813186815,329.3333333333333,378.13186813186815,310.33333333333337,390.32967032967036,310.33333333333337C394.39560439560444,310.33333333333337,394.39560439560444,310.33333333333337,398.46153846153845,310.33333333333337C402.5274725274726,310.33333333333337,402.5274725274726,338.8333333333333,406.59340659340666,338.8333333333333C410.6593406593407,338.8333333333333,410.6593406593407,319.8333333333333,414.72527472527474,319.8333333333333C418.79120879120876,319.8333333333333,418.79120879120876,285,422.85714285714283,285C451.31868131868134,285,451.31868131868134,158.33333333333334,479.7802197802198,158.33333333333334C483.8461538461538,158.33333333333334,483.8461538461538,205.83333333333337,487.9120879120879,205.83333333333337C500.1098901098901,205.83333333333337,500.1098901098901,177.33333333333334,512.3076923076923,177.33333333333334C516.3736263736264,177.33333333333334,516.3736263736264,183.66666666666666,520.4395604395605,183.66666666666666C524.5054945054945,183.66666666666666,524.5054945054945,183.66666666666666,528.5714285714286,183.66666666666666C532.6373626373627,183.66666666666666,532.6373626373627,155.16666666666669,536.7032967032967,155.16666666666669C540.7692307692307,155.16666666666669,540.7692307692307,155.16666666666669,544.8351648351648,155.16666666666669C557.032967032967,155.16666666666669,557.032967032967,120.33333333333334,569.2307692307693,120.33333333333334C573.2967032967033,120.33333333333334,573.2967032967033,94.99999999999999,577.3626373626373,94.99999999999999C581.4285714285713,94.99999999999999,581.4285714285713,113.99999999999997,585.4945054945055,113.99999999999997C589.5604395604396,113.99999999999997,589.5604395604396,155.16666666666669,593.6263736263736,155.16666666666669C597.6923076923076,155.16666666666669,597.6923076923076,190.00000000000003,601.7582417582418,190.00000000000003C613.9560439560439,190.00000000000003,613.9560439560439,186.83333333333331,626.1538461538462,186.83333333333331C630.2197802197802,186.83333333333331,630.2197802197802,145.66666666666666,634.2857142857142,145.66666666666666C638.3516483516484,145.66666666666666,638.3516483516484,79.16666666666664,642.4175824175825,79.16666666666664C646.4835164835165,79.16666666666664,646.4835164835165,88.66666666666667,650.5494505494505,88.66666666666667C654.6153846153845,88.66666666666667,654.6153846153845,72.83333333333333,658.6813186813187,72.83333333333333C670.8791208791208,72.83333333333333,670.8791208791208,41.16666666666665,683.0769230769231,41.16666666666665C687.1428571428571,41.16666666666665,687.1428571428571,129.83333333333331,691.2087912087912,129.83333333333331C695.2747252747253,129.83333333333331,695.2747252747253,132.99999999999997,699.3406593406593,132.99999999999997" stroke="#1f77b4" fill="none"/><text font-family="sans-serif" font-size="10" class="labels" x="683.0769230769231" y="41.16666666666665" dx="0" dy="-4" text-anchor="middle"/></g></g></g><text y="4" x="4" style="font-family: Arial, sans-serif; font-size: 12px; fill: black; font-weight: bold; dominant-baseline: hanging;"/></g><g id="grid"><rect x="0" y="0" width="805" height="600" fill="none" stroke="#ccc"/></g></g></svg>